Coordinates
version=1
nRows=23
nColumns=38
inDegrees=no

Units are S.I. units (second, meters, Newtons, ...)
If the header above contains a line with 'inDegrees', this indicates whether rotational values are in degrees (yes) or radians (no).

endheader
time	pelvis_tilt	pelvis_list	pelvis_rotation	pelvis_tx	pelvis_ty	pelvis_tz	hip_flexion_r	hip_adduction_r	hip_rotation_r	knee_angle_r	ankle_angle_r	subtalar_angle_r	mtp_angle_r	hip_flexion_l	hip_adduction_l	hip_rotation_l	knee_angle_l	ankle_angle_l	subtalar_angle_l	mtp_angle_l	lumbar_extension	lumbar_bending	lumbar_rotation	arm_flex_r	arm_add_r	arm_rot_r	elbow_flex_r	pro_sup_r	wrist_flex_r	wrist_dev_r	arm_flex_l	arm_add_l	arm_rot_l	elbow_flex_l	pro_sup_l	wrist_flex_l	wrist_dev_l
0	0.5612	1.52894	1.08962	0.582842	-0.596856	0.929768	0.546351	-0.0574013	-0.223383	0.138979	0.132954	0	0	-0.229536	0.0842431	-0.108723	0.140428	0.323834	0	0	-0.0416637	-0.0343519	-0.164693	0.0342918	-0.119448	-0.0885967	0.182533	1.25729	0	0	-0.0809838	-0.483872	0.661939	0.730572	0.789504	0	0
0.01	0.589446	1.52639	1.0606	0.583939	-0.583426	0.928015	0.539159	-0.0481084	-0.219783	0.111152	0.134768	0	0	-0.234059	0.0781522	-0.116482	0.159674	0.333147	0	0	-0.0386591	-0.0346731	-0.162906	0.0339328	-0.115384	-0.0929398	0.18015	1.26784	0	0	-0.0844593	-0.485837	0.663249	0.739746	0.792632	0	0
0.02	0.620776	1.52424	1.0278	0.58495	-0.569212	0.926399	0.538153	-0.0414524	-0.227253	0.106906	0.142889	0	0	-0.240063	0.07218	-0.122684	0.17825	0.338526	0	0	-0.0344022	-0.034391	-0.159897	0.0308333	-0.112622	-0.0928112	0.179169	1.26972	0	0	-0.0885752	-0.485814	0.664563	0.744936	0.796628	0	0
0.03	0.687177	1.52223	0.960065	0.585877	-0.55458	0.924972	0.53912	-0.0349662	-0.238325	0.117753	0.150453	0	0	-0.245119	0.0637594	-0.131735	0.202259	0.344461	0	0	-0.0306196	-0.0320421	-0.156592	0.0272904	-0.110662	-0.0918548	0.177039	1.27146	0	0	-0.0928724	-0.485439	0.667068	0.749583	0.801764	0	0
0.04	0.765635	1.51998	0.881013	0.586606	-0.539666	0.923677	0.542054	-0.0295321	-0.251335	0.141315	0.155355	0	0	-0.248914	0.0539377	-0.139683	0.23	0.349172	0	0	-0.0269485	-0.0282715	-0.153822	0.0228831	-0.109429	-0.0900505	0.174742	1.27349	0	0	-0.0978806	-0.484542	0.668617	0.754163	0.807451	0	0
0.05	1.05992	1.51324	0.592955	0.586781	-0.524001	0.923555	0.475648	0.00596823	-0.156141	0.041125	0.081516	0	0	-0.257298	0.0290616	-0.148629	0.264301	0.355187	0	0	-0.0299566	-0.0111431	-0.158021	0.0185616	-0.110268	-0.0870013	0.172911	1.27681	0	0	-0.103064	-0.479277	0.667658	0.753288	0.817076	0	0
0.06	1.01578	1.51225	0.633772	0.587476	-0.508665	0.92177	0.535628	-0.0118826	-0.2602	0.190023	0.144887	0	0	-0.255175	0.0252848	-0.15329	0.297074	0.354807	0	0	-0.022003	-0.0116816	-0.154686	0.0132787	-0.109642	-0.0851248	0.171566	1.27945	0	0	-0.112164	-0.478446	0.665775	0.758277	0.822871	0	0
0.07	0.95766	1.50857	0.696267	0.587244	-0.492706	0.920117	0.548591	-0.0165965	-0.277858	0.241328	0.155547	0	0	-0.248182	0.0183484	-0.150739	0.333816	0.3509	0	0	-0.00938031	-0.0101215	-0.158425	0.00460534	-0.110277	-0.0851816	0.171674	1.28194	0	0	-0.122843	-0.476117	0.664718	0.761096	0.825909	0	0
0.08	0.940382	1.5034	0.720162	0.586939	-0.476366	0.918709	0.550828	-0.0154456	-0.282152	0.271093	0.154184	0	0	-0.239528	0.00725109	-0.149059	0.375158	0.34361	0	0	0.00318871	-0.00575287	-0.164792	-0.00513532	-0.11182	-0.0847117	0.171738	1.28505	0	0	-0.13481	-0.473204	0.662721	0.762964	0.827766	0	0
0.09	0.942228	1.4972	0.725626	0.586703	-0.459914	0.917503	0.548111	-0.0109166	-0.280223	0.284568	0.134946	0	0	-0.227863	-0.00686339	-0.148569	0.422028	0.333328	0	0	0.0156988	0.000533986	-0.171949	-0.0140601	-0.114005	-0.0830518	0.168672	1.28867	0	0	-0.146002	-0.469647	0.662116	0.762073	0.828188	0	0
0.1	0.954318	1.48946	0.71992	0.586751	-0.443703	0.916593	0.545332	-0.00403213	-0.275801	0.290998	0.0918411	0	0	-0.211185	-0.0237996	-0.149311	0.475833	0.317674	0	0	0.027891	0.00869406	-0.177429	-0.0226911	-0.116749	-0.0818531	0.16649	1.29291	0	0	-0.154435	-0.465755	0.664908	0.757851	0.826164	0	0
0.11	0.972568	1.48194	0.703861	0.587292	-0.427958	0.916262	0.547004	0.00304067	-0.270725	0.307216	0.0446786	0	0	-0.19148	-0.0405175	-0.15179	0.533262	0.292242	0	0	0.0374818	0.0172886	-0.178182	-0.030687	-0.119516	-0.0836023	0.169431	1.29662	0	0	-0.159656	-0.46204	0.670324	0.751567	0.821483	0	0
0.12	0.969692	1.47342	0.70439	0.588175	-0.412841	0.916284	0.559473	0.00814555	-0.26625	0.34457	0.019378	0	0	-0.164152	-0.0564561	-0.156555	0.597283	0.257406	0	0	0.0476831	0.0258664	-0.175448	-0.0368925	-0.122079	-0.085982	0.172714	1.30303	0	0	-0.16335	-0.458573	0.678415	0.744862	0.81081	0	0
0.13	0.958075	1.46724	0.711431	0.589008	-0.39809	0.916574	0.576014	0.0101792	-0.25561	0.398731	0.0215825	0	0	-0.133197	-0.0685838	-0.158504	0.665385	0.213046	0	0	0.05592	0.0321844	-0.172129	-0.0403757	-0.123934	-0.0901802	0.174102	1.31325	0	0	-0.167638	-0.45648	0.686899	0.742151	0.791733	0	0
0.14	1.00114	1.46342	0.664317	0.589545	-0.383468	0.917537	0.58363	0.0143694	-0.25244	0.442096	0.0174659	0	0	-0.105366	-0.0814859	-0.156439	0.735117	0.161465	0	0	0.0563485	0.0412735	-0.171432	-0.040735	-0.126101	-0.0921126	0.174176	1.32269	0	0	-0.173497	-0.453513	0.688978	0.742228	0.775686	0	0
0.15	1.06427	1.46156	0.598246	0.589953	-0.368934	0.918639	0.582716	0.0200259	-0.245673	0.47842	0.0139428	0	0	-0.0780026	-0.0932051	-0.150906	0.80615	0.105032	0	0	0.0523611	0.0499316	-0.172364	-0.0405934	-0.127999	-0.0930831	0.175393	1.33071	0	0	-0.180854	-0.45233	0.688285	0.747545	0.760173	0	0
0.16	1.1385	1.46022	0.521738	0.590436	-0.354644	0.919753	0.574567	0.0270309	-0.242091	0.50387	0.00907008	0	0	-0.0496779	-0.104669	-0.144236	0.877834	0.0456688	0	0	0.0457484	0.0579628	-0.174028	-0.0399699	-0.129345	-0.0925493	0.177138	1.33598	0	0	-0.187949	-0.452603	0.687239	0.754459	0.748736	0	0
0.17	1.18313	1.45705	0.475256	0.591137	-0.340788	0.920434	0.565263	0.0346478	-0.24182	0.520193	0.00816919	0	0	-0.0142894	-0.116165	-0.136786	0.950998	-0.0174324	0	0	0.0423574	0.0648469	-0.176376	-0.0394407	-0.130053	-0.0915341	0.179033	1.34224	0	0	-0.194954	-0.454662	0.687278	0.763219	0.735327	0	0
0.18	1.20058	1.45289	0.455436	0.59198	-0.327308	0.920851	0.554089	0.0425967	-0.243824	0.526798	0.00979372	0	0	0.02567	-0.126802	-0.129413	1.02124	-0.082806	0	0	0.0422539	0.0704594	-0.177179	-0.0398648	-0.130606	-0.091548	0.181564	1.34915	0	0	-0.199481	-0.457805	0.691714	0.770214	0.721363	0	0
0.19	1.20024	1.44902	0.452686	0.592848	-0.314073	0.921267	0.540864	0.0501262	-0.246585	0.526322	0.0122469	0	0	0.0666981	-0.135176	-0.121905	1.08399	-0.151063	0	0	0.0444847	0.074296	-0.17581	-0.0415843	-0.131181	-0.0926163	0.185198	1.35602	0	0	-0.200926	-0.461311	0.700413	0.773574	0.710086	0	0
0.2	1.1916	1.44617	0.457241	0.59373	-0.30107	0.921939	0.526556	0.0572291	-0.247669	0.522618	0.0165463	0	0	0.106394	-0.140291	-0.113941	1.13775	-0.220545	0	0	0.0474787	0.0762159	-0.173301	-0.0433884	-0.131655	-0.0946316	0.191541	1.36284	0	0	-0.200526	-0.465063	0.711814	0.774067	0.700113	0	0
0.21	1.18249	1.44413	0.461051	0.594648	-0.288363	0.923002	0.512417	0.0648379	-0.244013	0.519219	0.0226322	0	0	0.14416	-0.142359	-0.104966	1.18519	-0.277697	0	0	0.0497646	0.0773081	-0.169671	-0.0439451	-0.131895	-0.0970364	0.196812	1.3693	0	0	-0.198737	-0.468271	0.723354	0.771991	0.692067	0	0
0.22	1.17902	1.44194	0.45932	0.595524	-0.275909	0.924462	0.498286	0.074093	-0.235189	0.516555	0.0299412	0	0	0.181662	-0.143258	-0.0940389	1.2322	-0.300696	0	0	0.0510345	0.0789284	-0.165174	-0.0436963	-0.131744	-0.100262	0.200384	1.37528	0	0	-0.195424	-0.470388	0.732978	0.768328	0.686867	0	0
